<svg width="115" height="114" xmlns="http://www.w3.org/2000/svg" xmlns:xlink="http://www.w3.org/1999/xlink" xml:space="preserve" overflow="hidden"><defs><clipPath id="clip0"><path d="M500.979 533.684 520.21 627.738 426.155 646.969 406.925 552.915Z" fill-rule="evenodd" clip-rule="evenodd"/></clipPath><clipPath id="clip1"><path d="M500.979 533.684 520.21 627.738 426.155 646.969 406.925 552.915Z" fill-rule="evenodd" clip-rule="evenodd"/></clipPath><clipPath id="clip2"><path d="M500.979 533.684 520.21 627.738 426.155 646.969 406.925 552.915Z" fill-rule="evenodd" clip-rule="evenodd"/></clipPath></defs><g transform="translate(-406 -533)"><g clip-path="url(#clip0)"><g clip-path="url(#clip1)"><g clip-path="url(#clip2)"><path d="M452.743 627.243 461.56 625.44 475.836 592.922 494.94 589.015C498.761 588.234 503.357 585.253 502.757 582.314 502.176 579.473 496.758 578.437 492.937 579.218L473.833 583.124 447.939 558.818 439.121 560.621 459.137 586.129 437.778 590.496 427.252 582.441 421.373 583.643 430.256 597.137 427.383 613.035 433.261 611.833 439.782 600.293 461.14 595.926 452.743 627.243Z" stroke="#000000" stroke-width="1.33333" fill="#FFFFFF"/></g></g></g></g></svg>